<?xml version="1.0" encoding="UTF-8" standalone="no"?>
<!DOCTYPE svg PUBLIC "-//W3C//DTD SVG 1.1//EN" "http://www.w3.org/Graphics/SVG/1.1/DTD/svg11.dtd">
<svg version="1.1" xmlns="http://www.w3.org/2000/svg" xmlns:xlink="http://www.w3.org/1999/xlink" preserveAspectRatio="xMidYMid meet" viewBox="0 0 163 33" width="163" height="33"><defs><path d="M0.65 0.26L162.99 0.26L162.99 33L0.65 33L0.65 0.26Z" id="a196KcaQW"></path><path d="M64.79 14.47C64.51 15.23 64.3 16.14 64.16 17.19C63.95 18.23 63.88 19.28 63.88 20.18C63.88 20.81 63.95 21.23 64.16 21.51C64.3 21.79 64.58 21.93 64.93 21.93C65.79 21.93 66.21 21.01 66.46 20.32C66.67 19.56 66.88 18.72 67.02 17.68C67.23 16.63 67.3 15.65 67.3 14.68C67.3 14.05 67.16 13.63 67.02 13.28C66.88 13 66.6 12.86 66.32 12.86C65.43 12.86 64.99 13.68 64.79 14.47M64.44 26.04C62.91 26.04 61.58 25.48 60.68 24.37C59.7 23.18 59.21 21.65 59.21 19.77C59.21 18.23 59.42 16.77 59.84 15.3C60.19 13.84 60.75 12.59 61.44 11.61C62.14 10.7 62.91 9.94 63.74 9.52C64.58 9 65.76 8.75 66.74 8.75C68.35 8.75 69.67 9.38 70.58 10.49C71.55 11.61 71.97 13.07 71.97 15.03C71.97 16.56 71.76 18.09 71.41 19.49C70.99 20.95 70.44 22.21 69.74 23.18C69.11 24.16 68.35 24.86 67.44 25.34C66.48 25.82 65.5 26.04 64.44 26.04" id="jl2PFnPvF"></path><path d="M49.87 25.69L52.52 9.1L57.12 9.1L55.17 21.58L58.58 21.58L57.96 25.69L49.87 25.69Z" id="e4ELKVJvtQ"></path><path d="M83.27 13.28L80.55 13.28L78.53 25.69L73.92 25.69L75.88 13.28L73.09 13.28L73.78 9.1L83.97 9.1L83.27 13.28Z" id="b1SEC1Cxtx"></path><path d="M95.61 19.49C95.19 20.95 94.63 22.21 93.94 23.18C93.31 24.16 92.54 24.86 91.63 25.34C90.68 25.82 89.7 26.04 88.64 26.04C87.03 26.04 85.78 25.48 84.87 24.37C84.31 23.67 83.9 22.91 83.68 22C83.48 21.37 83.41 20.6 83.41 19.77C83.41 17 84.01 13.88 85.64 11.61C86.27 10.7 87.1 9.93 87.94 9.52C88.77 9 89.95 8.75 90.94 8.75C92.54 8.75 93.8 9.38 94.77 10.49C95.47 11.33 95.89 12.37 96.1 13.7C96.17 14.12 96.17 14.54 96.17 15.03C96.17 16.54 95.98 18.02 95.61 19.49M90.59 20.32C90.87 19.56 91.08 18.72 91.21 17.67C91.36 16.63 91.43 15.65 91.43 14.68C91.43 14.05 91.36 13.63 91.21 13.28C91.08 13 90.8 12.86 90.45 12.86C89.55 12.86 89.18 13.75 88.92 14.47C88.71 15.23 88.5 16.14 88.29 17.19C88.15 18.23 88.08 19.28 88.08 20.18C88.08 20.81 88.15 21.23 88.36 21.51C88.5 21.79 88.78 21.93 89.12 21.93C89.97 21.93 90.41 21.02 90.59 20.32" id="a1dXVCSlOe"></path><path d="M106.21 13.14L106.9 9.1L98.61 9.1L96.02 25.69L96.1 25.69L100.63 25.69L101.6 19.42L104.74 19.42L105.37 15.51L102.23 15.51L102.65 13.14L106.21 13.14Z" id="ayJR9yL4k"></path><path d="M113.88 7.49L112.07 7.49L113.39 3.94L116.39 3.94L113.88 7.49Z" id="b19VCdY6VG"></path><path d="M112.34 19.91L112.41 13.77L110.46 19.91L112.34 19.91ZM104.05 25.69L110.25 9.1L115.76 9.1L116.94 25.69L112.2 25.69L112.27 23.25L109.48 23.25L108.79 25.69L104.05 25.69Z" id="dDTitON4R"></path><path d="M128.1 13.35C127.77 13.13 127.05 12.93 126.64 12.93C125.52 12.93 124.68 13.49 123.99 14.54C123.36 15.58 123.01 16.91 123.01 18.65C123.01 19.77 123.22 20.53 123.64 21.09C124.31 22.16 125.83 21.9 126.85 21.65C126.77 22.05 126.16 25.23 126.08 25.62C125.43 25.94 124.49 26.04 123.78 26.04C121.9 26.04 120.5 25.48 119.53 24.37C118.48 23.25 117.99 21.72 117.99 19.63C117.99 16.35 118.76 13.77 120.29 11.75C121.76 9.8 123.78 8.75 126.22 8.75C127.08 8.75 128.04 8.96 128.87 9.24C128.71 10.06 128.25 12.53 128.1 13.35Z" id="cAGoFlI91"></path><path d="M132.36 25.69L127.68 25.69L130.33 9.1L135 9.1L132.36 25.69Z" id="k34PjI2ZzW"></path><path d="M137.03 9.1L141.7 9.1L139.67 21.58L143.09 21.58L142.46 25.69L134.38 25.69L137.03 9.1Z" id="a63vaSUBJ5"></path><path d="M30.84 8.1C30.84 6.06 29.13 4.35 27.09 4.35C25.04 4.35 23.33 6.06 23.33 8.1C23.33 8.13 23.33 8.26 23.33 8.51C23.09 8.51 22.95 8.51 22.93 8.51C20.88 8.51 19.17 10.22 19.17 12.34C19.17 14.38 20.88 16.1 22.93 16.1C23.45 16.1 26.09 16.1 30.84 16.1C30.84 11.83 30.84 9.17 30.84 8.1Z" id="f5eAkQ9O2N"></path><path d="M30.84 25.15C30.84 27.19 29.13 28.91 27.09 28.91C25.04 28.91 23.33 27.19 23.33 25.15C23.33 25.13 23.33 24.99 23.33 24.75C23.09 24.75 22.95 24.75 22.93 24.75C20.88 24.75 19.17 23.03 19.17 20.99C19.17 18.95 20.88 17.24 22.93 17.24C23.45 17.24 26.09 17.24 30.84 17.24C30.84 21.46 30.84 24.1 30.84 25.15Z" id="a3towjGt96"></path><path d="M32.06 8.1C32.06 6.06 33.69 4.35 35.82 4.35C37.85 4.35 39.57 6.06 39.57 8.1C39.57 8.13 39.57 8.26 39.57 8.51C39.82 8.51 39.95 8.51 39.98 8.51C42.02 8.51 43.73 10.22 43.73 12.34C43.73 14.38 42.02 16.1 39.98 16.1C39.45 16.1 36.81 16.1 32.06 16.1C32.06 11.83 32.06 9.17 32.06 8.1Z" id="a3kVakGwm"></path><path d="M32.06 25.15C32.06 27.19 33.69 28.91 35.82 28.91C37.85 28.91 39.57 27.19 39.57 25.15C39.57 25.13 39.57 24.99 39.57 24.75C39.82 24.75 39.95 24.75 39.98 24.75C42.02 24.75 43.73 23.03 43.73 20.99C43.73 18.95 42.02 17.24 39.98 17.24C39.45 17.24 36.81 17.24 32.06 17.24C32.06 21.46 32.06 24.1 32.06 25.15Z" id="g10dXAPWda"></path></defs><g><g><g><use xlink:href="#a196KcaQW" opacity="1" fill="#a7348b" fill-opacity="1"></use><g><use xlink:href="#a196KcaQW" opacity="1" fill-opacity="0" stroke="#000000" stroke-width="1" stroke-opacity="0"></use></g></g><g><use xlink:href="#jl2PFnPvF" opacity="1" fill="#ffffff" fill-opacity="1"></use><g><use xlink:href="#jl2PFnPvF" opacity="1" fill-opacity="0" stroke="#000000" stroke-width="1" stroke-opacity="0"></use></g></g><g><use xlink:href="#e4ELKVJvtQ" opacity="1" fill="#ffffff" fill-opacity="1"></use><g><use xlink:href="#e4ELKVJvtQ" opacity="1" fill-opacity="0" stroke="#000000" stroke-width="1" stroke-opacity="0"></use></g></g><g><use xlink:href="#b1SEC1Cxtx" opacity="1" fill="#ffffff" fill-opacity="1"></use><g><use xlink:href="#b1SEC1Cxtx" opacity="1" fill-opacity="0" stroke="#000000" stroke-width="1" stroke-opacity="0"></use></g></g><g><use xlink:href="#a1dXVCSlOe" opacity="1" fill="#ffffff" fill-opacity="1"></use><g><use xlink:href="#a1dXVCSlOe" opacity="1" fill-opacity="0" stroke="#000000" stroke-width="1" stroke-opacity="0"></use></g></g><g><use xlink:href="#ayJR9yL4k" opacity="1" fill="#ffffff" fill-opacity="1"></use><g><use xlink:href="#ayJR9yL4k" opacity="1" fill-opacity="0" stroke="#000000" stroke-width="1" stroke-opacity="0"></use></g></g><g><use xlink:href="#b19VCdY6VG" opacity="1" fill="#ffffff" fill-opacity="1"></use><g><use xlink:href="#b19VCdY6VG" opacity="1" fill-opacity="0" stroke="#000000" stroke-width="1" stroke-opacity="0"></use></g></g><g><use xlink:href="#dDTitON4R" opacity="1" fill="#ffffff" fill-opacity="1"></use><g><use xlink:href="#dDTitON4R" opacity="1" fill-opacity="0" stroke="#000000" stroke-width="1" stroke-opacity="0"></use></g></g><g><use xlink:href="#cAGoFlI91" opacity="1" fill="#ffffff" fill-opacity="1"></use><g><use xlink:href="#cAGoFlI91" opacity="1" fill-opacity="0" stroke="#000000" stroke-width="1" stroke-opacity="0"></use></g></g><g><use xlink:href="#k34PjI2ZzW" opacity="1" fill="#ffffff" fill-opacity="1"></use><g><use xlink:href="#k34PjI2ZzW" opacity="1" fill-opacity="0" stroke="#000000" stroke-width="1" stroke-opacity="0"></use></g></g><g><use xlink:href="#a63vaSUBJ5" opacity="1" fill="#ffffff" fill-opacity="1"></use><g><use xlink:href="#a63vaSUBJ5" opacity="1" fill-opacity="0" stroke="#000000" stroke-width="1" stroke-opacity="0"></use></g></g><g><use xlink:href="#f5eAkQ9O2N" opacity="1" fill="#ffffff" fill-opacity="1"></use><g><use xlink:href="#f5eAkQ9O2N" opacity="1" fill-opacity="0" stroke="#000000" stroke-width="1" stroke-opacity="0"></use></g></g><g><use xlink:href="#a3towjGt96" opacity="1" fill="#e4b9d7" fill-opacity="1"></use><g><use xlink:href="#a3towjGt96" opacity="1" fill-opacity="0" stroke="#000000" stroke-width="1" stroke-opacity="0"></use></g></g><g><use xlink:href="#a3kVakGwm" opacity="1" fill="#e4b9d7" fill-opacity="1"></use><g><use xlink:href="#a3kVakGwm" opacity="1" fill-opacity="0" stroke="#000000" stroke-width="1" stroke-opacity="0"></use></g></g><g><use xlink:href="#g10dXAPWda" opacity="1" fill="#ffffff" fill-opacity="1"></use><g><use xlink:href="#g10dXAPWda" opacity="1" fill-opacity="0" stroke="#000000" stroke-width="1" stroke-opacity="0"></use></g></g></g></g></svg>